<?xml version="1.0" standalone="no"?><!DOCTYPE svg PUBLIC "-//W3C//DTD SVG 1.1//EN" "http://www.w3.org/Graphics/SVG/1.1/DTD/svg11.dtd"><svg t="1720592517622" class="icon" viewBox="0 0 1092 1024" version="1.1" xmlns="http://www.w3.org/2000/svg" p-id="2613" xmlns:xlink="http://www.w3.org/1999/xlink" width="51.1875" height="48"><path d="M978.488889 503.443911A316.142933 316.142933 0 0 0 853.333333 477.866667c-45.6704 0-88.996978 9.602844-127.954489 26.806044l-84.946488-152.917333a22.755556 22.755556 0 0 0-39.025778-1.274311l-176.696889 274.0224a22.755556 22.755556 0 0 1-37.819733 0.659911l-92.342045-132.960711a22.755556 22.755556 0 0 0-38.661689 2.070755l-146.500266 268.515556A22.755556 22.755556 0 0 0 129.365333 796.444444h417.655467a288.221867 288.221867 0 0 0 64.170667 159.288889H91.022222a91.022222 91.022222 0 0 1-91.022222-91.022222V91.022222a91.022222 91.022222 0 0 1 91.022222-91.022222h796.444445a91.022222 91.022222 0 0 1 91.022222 91.022222v412.421689zM341.333333 364.088889a91.022222 91.022222 0 1 0 0-182.044445 91.022222 91.022222 0 0 0 0 182.044445z m512 659.911111C721.373867 1024 614.4 917.026133 614.4 785.066667S721.373867 546.133333 853.333333 546.133333 1092.266667 653.1072 1092.266667 785.066667 985.2928 1024 853.333333 1024z m1.547378-279.620267l-68.380444-68.380444a22.755556 22.755556 0 0 0-32.176356 0l-16.088178 16.088178a22.755556 22.755556 0 0 0 0 32.176355l68.380445 68.4032-62.350222 62.350222a22.755556 22.755556 0 0 0 0 32.176356l10.057955 10.057956a22.755556 22.755556 0 0 0 32.176356 0l62.350222-62.350223 66.377955 66.377956a22.755556 22.755556 0 0 0 32.176356 0l16.088178-16.110933a22.755556 22.755556 0 0 0 0-32.176356l-66.3552-66.377956 68.380444-68.380444a22.755556 22.755556 0 0 0 0-32.176356l-10.057955-10.057955a22.755556 22.755556 0 0 0-32.176356 0l-68.4032 68.380444z" fill="#cdcdcd" p-id="2614"></path></svg>